<?xml version="1.0" standalone="no"?>
<!DOCTYPE svg PUBLIC "-//W3C//DTD SVG 20010904//EN"
 "http://www.w3.org/TR/2001/REC-SVG-20010904/DTD/svg10.dtd">
<svg version="1.0" xmlns="http://www.w3.org/2000/svg"
 width="959.000000pt" height="959.000000pt" viewBox="0 0 959.000000 959.000000"
 preserveAspectRatio="xMidYMid meet">

<g transform="translate(0.000000,959.000000) scale(0.100000,-0.100000)"
fill="#000000" stroke="none">
<path d="M2252 6047 c-23 -12 -57 -36 -75 -54 -33 -31 -47 -56 -121 -214 -42
-90 -101 -152 -176 -186 -72 -33 -183 -34 -285 -3 -238 72 -272 74 -349 21
-123 -85 -122 -222 2 -332 65 -57 130 -85 272 -119 209 -49 390 -30 558 60
171 91 346 304 417 507 29 84 31 129 10 201 -37 125 -144 176 -253 119z"/>
<path d="M5125 5971 c-218 -22 -380 -43 -395 -51 -64 -34 -105 -109 -98 -185
2 -33 6 -40 23 -38 70 9 299 33 310 33 7 0 18 -12 23 -27 5 -16 13 -35 16 -44
5 -11 -7 -21 -49 -38 -68 -28 -108 -68 -143 -141 -27 -55 -27 -55 -30 -337
l-4 -283 131 0 130 0 3 246 3 246 33 29 c30 27 39 29 107 29 l75 0 0 -275 0
-275 130 0 130 0 0 369 c0 343 -1 370 -17 375 -45 14 -168 36 -201 36 -20 0
-42 4 -48 8 -12 8 -48 101 -41 108 2 2 35 7 73 11 137 12 204 70 212 184 2 32
3 58 1 58 -2 -1 -170 -18 -374 -38z"/>
<path d="M2830 5747 c-69 -24 -116 -56 -180 -123 -117 -122 -191 -243 -231
-374 -35 -112 -32 -290 5 -415 59 -195 218 -419 347 -490 103 -56 229 -31 281
54 28 48 28 139 0 201 -12 25 -58 88 -103 140 -106 122 -133 179 -132 282 2
114 35 179 168 328 89 100 109 140 109 215 1 70 -27 129 -78 166 -37 28 -131
36 -186 16z"/>
<path d="M4038 5730 c-84 -8 -166 -22 -240 -41 l-38 -10 0 -409 0 -410 145 0
145 0 2 303 3 302 75 3 c87 3 115 -9 144 -58 19 -32 21 -55 24 -292 l4 -258
139 0 139 0 0 303 c-1 328 -5 359 -61 442 -29 43 -108 98 -164 114 -55 16
-212 21 -317 11z"/>
<path d="M6012 5730 c-107 -20 -178 -65 -214 -138 -19 -39 -23 -63 -23 -139 1
-51 5 -97 11 -103 6 -6 44 -2 114 14 103 23 105 23 108 53 2 21 11 34 28 42
38 17 131 14 165 -6 53 -31 59 -67 59 -343 l0 -250 146 0 146 0 -4 303 c-4
246 -8 311 -21 353 -33 100 -104 170 -204 200 -59 19 -240 26 -311 14z"/>
<path d="M6995 5731 c-44 -4 -124 -16 -177 -26 l-98 -19 0 -413 0 -414 143 3
142 3 5 300 5 300 72 3 c52 2 81 -2 103 -13 55 -29 60 -56 60 -340 l0 -255
145 0 145 0 0 263 c0 362 -14 432 -103 519 -63 63 -136 88 -262 93 -55 2 -136
0 -180 -4z"/>
<path d="M7881 5725 c-52 -8 -98 -18 -103 -23 -5 -5 -9 -198 -8 -429 l0 -420
-55 -6 c-109 -11 -185 -86 -185 -181 0 -31 3 -36 18 -32 9 3 107 19 217 36
110 17 209 34 219 37 18 5 19 14 13 168 -3 90 -3 173 0 184 5 19 13 21 72 21
138 0 234 52 286 155 28 55 30 68 30 165 0 89 -4 113 -24 158 -31 69 -106 137
-174 158 -73 22 -196 26 -306 9z m224 -187 c51 -40 69 -124 44 -211 -13 -50
-45 -69 -106 -65 l-48 3 -3 134 c-1 74 0 141 2 148 9 21 80 16 111 -9z"/>
<path d="M1515 5006 c-219 -42 -332 -105 -381 -211 -40 -85 -31 -148 31 -208
70 -68 164 -73 340 -17 185 59 307 39 409 -64 32 -33 65 -87 115 -189 75 -154
100 -184 176 -217 92 -40 185 -11 230 72 56 102 42 235 -40 399 -48 95 -147
221 -219 280 -69 57 -193 120 -281 144 -83 22 -291 28 -380 11z"/>
<path d="M5466 4686 c-11 -53 -31 -238 -27 -242 2 -2 32 -4 67 -4 53 0 67 4
93 26 35 29 41 72 16 98 -14 14 -14 17 5 36 11 11 20 31 20 43 0 40 -31 58
-104 61 -61 3 -67 1 -70 -18z m108 -32 c21 -21 20 -30 -6 -48 -38 -27 -58 -21
-58 17 0 19 3 37 7 40 11 12 41 7 57 -9z m-13 -104 c41 -23 16 -70 -38 -70
-31 0 -33 2 -27 28 10 47 13 52 29 52 9 0 25 -5 36 -10z"/>
<path d="M6001 4613 c-6 -54 -14 -115 -17 -135 -5 -35 -4 -38 20 -38 22 0 25
5 31 48 8 62 26 96 53 100 22 3 22 1 16 -55 -11 -90 -11 -88 15 -88 14 0 25 6
26 15 14 98 15 131 5 149 -12 23 -49 28 -80 11 -18 -10 -19 -7 -13 40 6 48 5
50 -19 50 -24 0 -25 -4 -37 -97z"/>
<path d="M6364 4703 c-39 -8 -86 -67 -91 -117 -11 -94 27 -146 106 -146 74 0
95 16 101 78 l6 52 -43 0 c-36 0 -43 -3 -43 -20 0 -12 7 -20 16 -20 10 0 14
-7 12 -22 -2 -18 -11 -24 -35 -26 -66 -7 -96 75 -54 145 22 36 68 51 101 33
25 -14 50 -7 50 14 0 25 -67 41 -126 29z"/>
<path d="M6710 4695 c0 -25 -20 -208 -25 -231 -4 -20 0 -21 52 -22 32 0 66 4
76 10 38 20 60 115 37 159 -11 20 -64 27 -75 9 -3 -5 -11 -10 -17 -10 -6 0 -7
18 -3 50 7 49 6 50 -19 50 -17 0 -26 -5 -26 -15z m100 -139 c0 -45 -8 -64 -32
-77 -29 -16 -48 5 -38 40 13 48 30 71 50 71 16 0 20 -7 20 -34z"/>
<path d="M5704 4618 c-24 -11 -54 -68 -54 -102 0 -41 36 -76 80 -76 44 0 97
34 69 45 -8 3 -27 2 -40 -4 -29 -10 -59 2 -59 24 0 8 9 15 20 15 11 0 36 7 55
14 28 12 35 20 35 43 0 16 -5 34 -12 41 -14 14 -65 15 -94 0z m62 -29 c8 -13
-3 -24 -33 -34 -28 -8 -32 19 -5 34 22 13 29 13 38 0z"/>
<path d="M5860 4610 c-32 -32 -26 -67 15 -87 46 -22 43 -49 -5 -46 -36 2 -58
-16 -37 -29 7 -4 29 -8 49 -8 28 0 42 6 58 27 27 35 23 53 -23 82 -28 19 -34
27 -26 38 7 7 21 10 35 7 31 -8 49 3 33 22 -17 21 -76 17 -99 -6z"/>
<path d="M6547 4609 c-29 -22 -51 -86 -41 -115 14 -37 37 -54 74 -54 45 0 96
34 68 45 -9 4 -25 2 -36 -4 -12 -6 -27 -8 -36 -5 -19 7 -29 34 -13 39 6 2 29
9 50 15 48 15 64 43 42 76 -20 31 -72 32 -108 3z m69 -20 c8 -13 -3 -24 -33
-34 -27 -7 -30 7 -7 29 18 19 30 20 40 5z"/>
<path d="M6932 4614 c-79 -55 -61 -174 28 -174 44 0 97 34 69 45 -8 3 -27 2
-40 -4 -29 -10 -59 2 -59 24 0 8 9 15 20 15 11 0 36 7 55 14 28 12 35 20 35
43 0 16 -5 34 -12 41 -17 17 -69 15 -96 -4z m65 -31 c4 -12 -45 -38 -54 -29
-3 2 1 14 7 26 12 22 40 24 47 3z"/>
<path d="M7064 4612 c4 -11 15 -51 26 -88 18 -68 18 -69 -1 -100 -10 -17 -19
-34 -19 -38 0 -11 37 -6 48 7 8 10 108 201 120 229 2 5 -7 8 -20 8 -20 0 -29
-10 -48 -50 -13 -27 -26 -50 -30 -50 -4 0 -11 21 -16 48 -8 42 -12 47 -37 50
-25 3 -28 1 -23 -16z"/>
<path d="M7286 4611 c-16 -11 -35 -30 -42 -43 -17 -29 -18 -100 -2 -116 16
-16 60 -15 77 1 11 10 14 10 18 0 7 -19 41 -16 47 5 2 9 7 52 11 95 l7 77 -44
0 c-26 0 -55 -8 -72 -19z m64 -41 c0 -39 -28 -90 -49 -90 -17 0 -21 6 -21 33
0 18 7 43 16 55 20 28 54 30 54 2z"/>
<path d="M6166 4074 c-9 -23 -8 -24 13 -24 14 0 18 5 14 20 -6 24 -19 26 -27
4z"/>
<path d="M5312 4068 c-16 -16 -15 -25 2 -31 8 -3 16 2 19 14 6 23 -6 32 -21
17z"/>
<path d="M7002 4068 c-16 -16 -15 -28 3 -28 8 0 15 9 15 20 0 23 -2 24 -18 8z"/>
<path d="M5177 4050 c-3 -11 -1 -20 4 -20 5 0 9 5 9 11 0 5 5 7 10 4 6 -3 10
1 10 9 0 23 -27 20 -33 -4z"/>
<path d="M6867 4050 c-3 -11 -2 -20 3 -20 12 0 31 26 23 33 -11 12 -21 7 -26
-13z"/>
<path d="M4907 3978 c-10 -46 -20 -91 -22 -100 -3 -12 2 -18 14 -18 14 0 22
17 36 78 18 80 18 113 0 119 -6 2 -19 -34 -28 -79z"/>
<path d="M5878 3972 c-21 -106 -22 -112 -5 -112 18 0 59 170 45 187 -6 7 -13
13 -17 13 -3 0 -14 -40 -23 -88z"/>
<path d="M6536 4038 c-15 -13 -29 -37 -32 -55 -6 -29 -4 -31 15 -26 12 3 21
13 21 25 0 10 7 32 15 48 19 36 14 37 -19 8z"/>
<path d="M6622 4043 c5 -25 28 -28 28 -4 0 12 -6 21 -16 21 -9 0 -14 -7 -12
-17z"/>
<path d="M4834 4024 c-18 -26 -44 -114 -44 -146 0 -12 8 -18 21 -18 15 0 19 5
15 15 -3 9 -2 23 3 33 15 29 38 142 30 142 -5 0 -16 -12 -25 -26z"/>
<path d="M5236 4035 c4 -8 10 -12 15 -9 17 10 21 -25 10 -73 -21 -88 -21 -93
-2 -93 13 0 21 17 34 71 l17 71 -25 24 c-29 27 -58 32 -49 9z"/>
<path d="M5818 4039 c-16 -9 -37 -67 -53 -146 -6 -28 -4 -33 12 -33 16 0 21
12 31 77 7 42 17 82 24 90 14 18 7 24 -14 12z"/>
<path d="M6215 4038 c-18 -50 -45 -146 -45 -160 0 -10 7 -18 15 -18 13 0 37
61 39 100 1 8 5 21 9 28 17 26 18 62 2 62 -9 0 -18 -6 -20 -12z"/>
<path d="M6925 4041 c-3 -5 -1 -12 5 -16 5 -3 10 -3 10 1 0 3 7 1 15 -6 8 -7
12 -17 8 -23 -7 -12 -33 -131 -29 -135 2 -1 10 0 18 3 8 3 19 31 26 63 16 76
15 92 -3 92 -8 0 -15 7 -15 15 0 16 -25 21 -35 6z"/>
<path d="M5192 3982 c-11 -15 -23 -49 -27 -75 -6 -40 -5 -47 9 -47 9 0 18 6
20 13 21 83 31 137 25 137 -4 0 -17 -12 -27 -28z"/>
<path d="M6275 4000 c3 -5 1 -19 -5 -30 -7 -13 -7 -20 -1 -20 6 0 15 9 21 20
11 21 6 40 -11 40 -6 0 -7 -4 -4 -10z"/>
<path d="M6886 3991 c-30 -33 -47 -131 -22 -131 9 0 18 22 26 63 6 34 17 68
22 75 17 20 -7 14 -26 -7z"/>
<path d="M6137 3993 c-11 -11 -8 -53 4 -53 6 0 9 7 6 15 -4 8 -2 17 3 20 6 4
10 10 10 16 0 10 -14 12 -23 2z"/>
<path d="M3893 3983 c59 -2 154 -2 210 0 56 1 8 3 -108 3 -115 0 -161 -2 -102
-3z"/>
<path d="M6572 3948 c-6 -7 -13 -30 -17 -50 -11 -58 16 -49 37 12 12 39 13 50
3 50 -7 0 -17 -6 -23 -12z"/>
<path d="M7568 3943 c7 -3 16 -2 19 1 4 3 -2 6 -13 5 -11 0 -14 -3 -6 -6z"/>
</g>
</svg>
